<?xml version="1.0" encoding="utf-8"?>
<!-- Generator: Adobe Illustrator 21.0.2, SVG Export Plug-In . SVG Version: 6.00 Build 0)  -->
<svg version="1.1" id="Layer_1" xmlns="http://www.w3.org/2000/svg" xmlns:xlink="http://www.w3.org/1999/xlink" x="0px" y="0px"
	 viewBox="0 0 100 35.4" style="enable-background:new 0 0 100 35.4;" xml:space="preserve">
<style type="text/css">
	.st0{fill:#00C9C9;}
</style>
<title>Asset 2</title>
<g id="Layer_2">
	<g id="Layer_1-2">
		<path class="st0" d="M22.9,10.4c0,2.2,1.7,3.9,4,3.9s4-1.5,4-3.7c0-0.9-0.3-1.9-0.9-2.6c-1.3-1.7-3.1-3-5-3.8
			c-2.4-0.9-5-1.3-7.5-1c-0.5,0-0.9,0.1-1.4,0.1C6.7,4.4,0,10.3,0,20.1c0,10.7,9.4,15.3,18.8,15.3c4.1,0,9.8-1.1,11.9-2.3V19.4H17.8
			v1l4.3,0.8v12.1c-0.6,0.1-1.2,0.1-1.7,0.1c-7.3,0-10.1-6.9-10.1-14.3c0-5.9,2.3-10.6,5.6-12.9c0.7-0.5,1.5-0.8,2.4-1.1
			C18.7,5.1,19.1,5,19.5,5c1.6-0.2,3.3,0.1,4.8,0.7c0.4,0.1,0.7,0.3,1,0.5c0.4,0.2,0.7,0.4,1,0.6C24.5,6.8,22.9,8.4,22.9,10.4z
			 M67.1,8.7c2.8,0,4.8-1.8,4.8-4.3S69.8,0,67.1,0s-4.6,1.8-4.6,4.4S64.4,8.7,67.1,8.7z M55.8,32.2V18.4c0-5.2-3.5-8.2-9.7-8.2
			c-1.2,0-7.5,0.2-10.5,4c-0.5,0.7-0.8,1.6-0.8,2.5c0,2.1,1.5,3.5,3.8,3.5c2.2,0,3.8-1.5,3.8-3.6c0-1.9-1.4-3.4-3.3-3.5
			c1.3-0.5,2.6-0.8,4-0.8h0.4c2.7,0.1,4.2,1.9,4.2,5l0,4.6h-2.1c-7.6,0-12.3,2.8-12.3,7.3c0,4.3,3.4,6.2,6.8,6.2
			c4,0,7.2-3.3,7.7-3.9L49,35h9.8v-1.3L55.8,32.2z M45.7,30.6c-1.8,0-3.8-0.8-3.8-3.1c0-3.2,2.7-3.6,4.3-3.6l1.4,0v6.5
			C47,30.5,46.4,30.6,45.7,30.6z M70.9,10.3h-3.5l-8.5,2.5V14h3.9v19.2l-2.7,0.7V35h13.6v-1.2l-2.8-0.7L70.9,10.3z M100,33.7l-3-1.5
			V18.4c0-5.2-3.5-8.2-9.7-8.2c-1.2,0-7.5,0.2-10.5,4C76.3,15,76,15.8,76,16.7c0,2.1,1.5,3.5,3.8,3.5c2.2,0,3.8-1.5,3.8-3.6
			c0-1.9-1.4-3.4-3.3-3.5c1.3-0.5,2.6-0.8,4-0.8h0.4c2.7,0.1,4.2,1.9,4.2,5l0,4.6h-2.1c-7.6,0-12.3,2.8-12.3,7.3
			c0,4.3,3.4,6.2,6.8,6.2c4,0,7.2-3.3,7.7-3.9l1.2,3.5h9.8L100,33.7z M86.8,30.6c-1.8,0-3.8-0.8-3.8-3.1c0-3.2,2.7-3.6,4.3-3.6
			l1.4,0v6.5C88.2,30.5,87.5,30.6,86.8,30.6z"/>
	</g>
</g>
</svg>
